/* XPM */
static char *result[] = {
/* columns rows colors chars-per-pixel */
"32 32 88 1 ",
"  c black",
". c #0A0702",
"X c #0B0803",
"o c #130E04",
"O c #1A1306",
"+ c #261D0A",
"@ c gray19",
"# c #423310",
"$ c #4B3B12",
"% c red",
"& c #EE3310",
"* c #EB3B12",
"= c #947225",
"- c #967525",
"; c #987526",
": c #A07A28",
"> c #A47D28",
", c #A47E28",
"< c #D67525",
"1 c #D47E28",
"2 c #C89931",
"3 c #CB9C32",
"4 c #CC9D32",
"5 c #CD9E32",
"6 c #D89931",
"7 c #D89D32",
"8 c #D2A133",
"9 c #D3A234",
"0 c #D6A434",
"q c #D9A735",
"w c #DAA735",
"e c #DBA735",
"r c #DBA835",
"t c #DEAA36",
"y c #BE9D4D",
"u c #C29C46",
"i c #D8A840",
"p c #DAA940",
"a c #DBAA40",
"s c #DDAB40",
"d c #DCAC42",
"f c #DDAD42",
"g c #DEAE43",
"h c #D9AE4A",
"j c #DAAF4B",
"k c #DBB04D",
"l c #DDB350",
"z c #E0AD40",
"x c #E2AD40",
"c c #E2AE40",
"v c #E3AE40",
"b c #E6B040",
"n c #E5B241",
"m c #E6B241",
"M c #E6B341",
"N c #E6B242",
"B c #E7B242",
"V c #E3B145",
"C c #E0B047",
"Z c #E1B047",
"A c #E2B046",
"S c #E8B140",
"D c #E8B441",
"F c #EFB540",
"G c #EDB741",
"H c #EEB842",
"J c #ECBB49",
"K c #EDBC4A",
"L c #EEBD4A",
"P c #F1B640",
"I c #F2B640",
"U c #F3B741",
"Y c #E3B958",
"T c #E3BA59",
"R c #E5BB5B",
"E c #E5BC5C",
"W c #E7BD5C",
"Q c #E8BE5E",
"! c #E9C060",
"~ c #EAC161",
"^ c #EAC162",
"/ c #EBC263",
"( c #EBC364",
") c #ECC466",
"_ c #EEC668",
"` c #A9A08D",
"' c #A7A093",
"] c gray63",
/* pixels */
"         %%]         %]         ",
"         %%]         %]         ",
"         %%%%%%%%%%%%%]         ",
"         %%%%%%%%%%%%%]         ",
"         %%'O=3333:OO%]         ",
"         %&88wtttte88&]         ",
"        .<6tt      tt6yo        ",
"       .3ttr Y____R  tt4X       ",
"       -te0 ^/____(~h wt,       ",
"      #2t0 )AZ_QW_CV(l t4$      ",
"     O8tr )pPIizciIPa)j t9+     ",
"     O8t ^APdBUSSIBfFA~ t9+     ",
"     =w Y/ZIBJ MM KBPZ^T w;     ",
"     3t ___iU HMnH Up___ t4     ",
"     3t __QzSMM  mDbxQ__ t4     ",
"     3t __WcSMn  nDbvW__ t4     ",
"     3t ___iI HmnG Ip___ t4     ",
"     :e R(CIBK DD LNIC/E r>     ",
"     O8t ~VPfBUbbINgFV! t9+     ",
"     O8tw (aFPpxvpIFs(k t9+     ",
"      #2t l)AZ_QW_CV(l t4$      ",
"       -tw j~^____/!k qt,       ",
"       o4tt  T____E qtt5        ",
"        X17tt      tt7u         ",
"         %*99wttttr99           ",
"         %%`+;4444    ]         ",
"         %%]         %]         ",
"         %%%%%%%%%%%%%]         ",
"]]]@@@@@@%%%%%%%%%%%%%]@@@@@@]]]",
"]]@@@@@@@%%]         %]@@@@@@@]]",
"]@@@@@@@@%%]         %]@@@@@@@@]",
"]]]]]]]]]%%%%%%%%%%%%%]]]]]]]]]]"
};
