/* XPM */
static char *result[] = {
/* columns rows colors chars-per-pixel */
"32 32 163 2 ",
"   c black",
".  c #08020C",
"X  c #08030C",
"o  c #15051F",
"O  c #16051F",
"+  c #14071F",
"@  c #160520",
"#  c #170621",
"$  c #140820",
"%  c #170821",
"&  c #180822",
"*  c #180E25",
"=  c #1B0F27",
"-  c #1A1027",
";  c #1E142B",
":  c #1F1B2E",
">  c #221222",
",  c #24142B",
"<  c #22132D",
"1  c #21142D",
"2  c #21152D",
"3  c #20162E",
"4  c #21192F",
"5  c #221433",
"6  c #261933",
"7  c #221D35",
"8  c #261D35",
"9  c #261D39",
"0  c #3F272E",
"q  c #2E253D",
"w  c #2A293C",
"e  c #2B2A3D",
"r  c #302538",
"t  c #312638",
"y  c #302E38",
"u  c #3A2B3E",
"i  c gray19",
"p  c #4F322A",
"a  c #4E332A",
"s  c #763720",
"d  c #2B2040",
"f  c #2D2742",
"g  c #2E2843",
"h  c #2D2D40",
"j  c #2D2E41",
"k  c #2E2A44",
"l  c #302D45",
"z  c #352E45",
"x  c #302A4B",
"c  c #303046",
"v  c #313445",
"b  c #3D3343",
"n  c #383741",
"m  c #3E3D44",
"M  c #333649",
"N  c #353B4B",
"B  c #373D4D",
"V  c #363053",
"C  c #403545",
"Z  c #403645",
"A  c #473B4A",
"S  c #4C3F4D",
"D  c #7E3248",
"F  c #443668",
"G  c #3B4151",
"H  c #3D4354",
"J  c #3F4455",
"K  c #46404E",
"L  c #47454F",
"P  c #404657",
"I  c #484350",
"U  c #4E4551",
"Y  c #454B5D",
"T  c #5B4E5A",
"R  c #5D545E",
"E  c #62474E",
"W  c #4A4F61",
"Q  c #524F67",
"!  c #4D5366",
"~  c #58566E",
"^  c #565B6F",
"/  c #5A5F68",
"(  c #58586F",
")  c #5F5E6E",
"_  c #534671",
"`  c #554973",
"'  c #685D66",
"]  c #5F646B",
"[  c #6D626A",
"{  c #7B6461",
"}  c #62677C",
"|  c #7B7276",
" . c #7A7377",
".. c #803C20",
"X. c #9D572E",
"o. c #AD5827",
"O. c #A25E34",
"+. c #BA602C",
"@. c #B6763F",
"#. c #DC7B2C",
"$. c #86354B",
"%. c #A2514B",
"&. c #806547",
"*. c #806749",
"=. c #806E58",
"-. c #AE6741",
";. c #847A7D",
":. c #C07F44",
">. c #F7822F",
",. c #F8862A",
"<. c #F8882B",
"1. c #F88A3B",
"2. c #E09C41",
"3. c #F3AA44",
"4. c #FEB246",
"5. c #F9A360",
"6. c #FEC56E",
"7. c #6A6F85",
"8. c #726A86",
"9. c #6E738A",
"0. c #72778E",
"q. c #777C93",
"w. c #857F80",
"e. c #857DA7",
"r. c #878181",
"t. c #898283",
"y. c #918989",
"u. c #948E8C",
"i. c #A49F9A",
"p. c #A7A09C",
"a. c #8982AC",
"s. c #9493AC",
"d. c #9895B5",
"f. c #9C9AB8",
"g. c #A09CB7",
"h. c #A09CBE",
"j. c gray63",
"k. c #A5A2BB",
"l. c #FBC491",
"z. c #A5A1C1",
"x. c #AAA7C4",
"c. c #BAB8C6",
"v. c #BFBEC9",
"b. c #C3BEC7",
"n. c #C4C2CE",
"m. c #D0CECC",
"M. c #DAD7C7",
"N. c #C9C7D1",
"B. c #D6D4D0",
"V. c #D9D7D7",
"C. c #DFDDD9",
"Z. c #E3E1DB",
"A. c #E7E6DD",
"S. c #EFEEDA",
"D. c #F3F2DD",
"F. c #F3F1E0",
"G. c #F9F8E2",
"H. c #FAF9E4",
"J. c #FBFAE5",
"K. c #FCFAE5",
"L. c #FDFCE5",
"P. c #FFFEE7",
"I. c white",
/* pixels */
"                      ) ) ) V.V.x.V.V.) ) )                     ",
"                  y m.P.P.P.P.P.x.P.P.P.P.P.B.n                 ",
"                g.J.P.P.y., T P.x.P.' , ;.P.P.K.k.              ",
"            m Z.P.u.$ $ $ $ U P.x.P.R $ $ $ $ r.L.A.L           ",
"          s.P.P.P.U U U U U  .P.x.P.w.U U U U U D.P.P.g.        ",
"          s.P.P.P.P.P.P.P.P.P.P.x.P.P.P.P.P.P.P.P.P.P.g.        ",
"        : e.C.C.C.C.C.C.C.C.C.C.b.C.C.C.C.C.C.C.C.C.C.a.7       ",
"        x h.P.N.W W W W W W W W W W W W W W W W W n.P.z.V       ",
"        x h.P.N.O g N N N N N N N N N N N N N k # n.P.z.V       ",
"        x h.P.N.o g N j 8 8 K / / / I 8 8 h J N % n.P.z.V       ",
"        x h.P.N.$ g N * / S.P.P.p.O + i.] - 7.N % n.P.z.V       ",
"        x h.P.N.$ g N t P.P.P.[ O u M.y.P.Z 7.N % n.P.z.V       ",
"        x h.P.N.$ g N t P.P.S s 5...A P.P.C 7.N % n.P.z.V       ",
"        x h.P.N.$ g N t t.D %.2.2.2.#.$.| Z 7.N % n.P.z.V       ",
"        x h.P.N.$ g N r H.1.3.4.> 4.3.>.G.b 7.N % n.P.z.V       ",
"        x h.P.N.$ g N 3 ^ o.:.p a a @.+.N = 7.N % n.P.z.V       ",
"        x h.P.N.$ { l.2 ^ N 0 -.O.X.E N N = 7.N % n.P.z.V       ",
"        x h.P.N.$ M c w q 4 ; Q N v z 4 4 & 7.N % n.P.z.V       ",
"        x h.P.N.$ =.6.B Y Y Y G N N P Y Y Y N N % n.P.z.V       ",
"        x h.P.N.$ *.<.N N N N N N N N N N N N N % n.P.z.V       ",
"        x h.P.N.O &.,.< 0.9.( Q N e ~ 9.9.6 7.N % n.P.z.V       ",
"        x h.P.N.$ l f 1 ^ N h Q N e ~ N N = 7.N % n.P.z.V       ",
"        x h.P.N.$ g N < ^ N h Q N e ~ N N = 7.N % n.P.z.V       ",
"        x h.P.N.$ g N < ^ N h Q N e ~ N N = 7.N % n.P.z.V       ",
"        x h.P.N.$ g N < ^ N h Q N e ~ N N = 7.N % n.P.z.V       ",
"        x h.P.N.O g N H q.q.q.! N N } q.q.q.N N % n.P.z.V       ",
"        x d.F.v.O g N N N N N N N N N N N N N N % c.F.f.V       ",
"      . 9 F 8.` O 5 5 5 5 5 5 5 5 5 5 5 5 5 5 5 @ _ 8.F d X     ",
"j.j.j.i i i i i i i i i i i i I.i I.i i i i i i i i i i i j.j.j.",
"j.j.i i i i i i i i i i i i i I.i I.i i i i i i i i i i i i j.j.",
"j.i i i i i i i i i i i i i i I.i I.i i i i i i i i i i i i i j.",
"j.j.j.j.j.j.j.j.j.j.j.j.j.j.j.j.j.j.j.j.j.j.j.j.j.j.j.j.j.j.j.j."
};
