/* XPM */
static char *result[] = {
/* columns rows colors chars-per-pixel */
"32 32 4 1 ",
"  c black",
". c gray19",
"X c red",
"o c gray63",
/* pixels */
"         XXo         Xo         ",
"         XXo         Xo         ",
"         XXXXXXXXXXXXXo         ",
"         XXXXXXXXXXXXXo         ",
"         XXo         Xo         ",
"         XXo         Xo         ",
"         XXo         Xo         ",
"         XXXXXXXXXXXXXo         ",
"         XXXXXXXXXXXXXo         ",
"         XXo         Xo         ",
"         XXo         Xo         ",
"         XXo         Xo         ",
"         XXXXXXXXXXXXXo         ",
"         XXXXXXXXXXXXXo         ",
"         XXo         Xo         ",
"         XXo         Xo         ",
"         XXo         Xo         ",
"         XXXXXXXXXXXXXo         ",
"         XXXXXXXXXXXXXo         ",
"         XXo         Xo         ",
"         XXo         Xo         ",
"         XXo         Xo         ",
"         XXXXXXXXXXXXXo         ",
"         XXXXXXXXXXXXXo         ",
"         XXo         Xo         ",
"         XXo         Xo         ",
"         XXo         Xo         ",
"         XXXXXXXXXXXXXo         ",
"ooo......XXXXXXXXXXXXXo......ooo",
"oo.......XXo         Xo.......oo",
"o........XXo         Xo........o",
"oooooooooXXXXXXXXXXXXXoooooooooo"
};
