/* XPM */
static char *result[] = {
/* columns rows colors chars-per-pixel */
"32 32 61 1 ",
"  c black",
". c #030006",
"X c #030106",
"o c #14041F",
"O c #1F1C2D",
"+ c #24152A",
"@ c #221E34",
"# c #261E38",
"$ c #2B213F",
"% c #302E38",
"& c gray19",
"* c #302B4A",
"= c #383741",
"- c #3E3D44",
"; c #363152",
": c #443866",
"> c #47454F",
", c #4E4551",
"< c #5B4E5A",
"1 c #5D545E",
"2 c #4A4F60",
"3 c #53476F",
"4 c #5F5E6D",
"5 c #554A71",
"6 c #685D66",
"7 c #7A7377",
"8 c #847A7D",
"9 c #726B85",
"0 c #857F80",
"q c #857EA5",
"w c #878181",
"e c #918989",
"r c #948E8C",
"t c #8983AA",
"y c #9494AB",
"u c #9896B4",
"i c #9C9BB7",
"p c #A09DB6",
"a c #A09DBC",
"s c gray63",
"d c #A5A3BA",
"f c #A5A2C0",
"g c #AAA8C3",
"h c #BAB8C5",
"j c #BFBEC8",
"k c #C3BEC7",
"l c #C4C2CD",
"z c #D0CECC",
"x c #C9C7D1",
"c c #D6D4D0",
"v c #D9D7D7",
"b c #DFDDD9",
"n c #E3E1DB",
"m c #E7E6DE",
"M c #F3F2DE",
"N c #F3F1E1",
"B c #FBFAE6",
"V c #FCFAE6",
"C c #FDFCE6",
"Z c #FFFEE8",
"A c white",
/* pixels */
"           444vvgvv444          ",
"         %zZZZZZgZZZZZc=        ",
"        pBZZe+<ZgZ6+8ZZVd       ",
"      -nZroooo,ZgZ1oooowCm>     ",
"     yZZZ,,,,,7ZgZ0,,,,,MZZp    ",
"     yZZZZZZZZZZgZZZZZZZZZZp    ",
"    Oqbbbbbbbbbbkbbbbbbbbbbt@   ",
"    *aZx22222222222222222lZf;   ",
"    *aZx                 lZf;   ",
"    *aZx                 lZf;   ",
"    *aZx                 lZf;   ",
"    *aZx                 lZf;   ",
"    *aZx                 lZf;   ",
"    *aZx                 lZf;   ",
"    *aZx                 lZf;   ",
"    *aZx                 lZf;   ",
"    *aZx                 lZf;   ",
"    *aZx                 lZf;   ",
"    *aZx                 lZf;   ",
"    *aZx                 lZf;   ",
"    *aZx                 lZf;   ",
"    *aZx                 lZf;   ",
"    *aZx                 lZf;   ",
"    *aZx                 lZf;   ",
"    *aZx                 lZf;   ",
"    *aZx                 lZf;   ",
"    *uNj                 hNi;   ",
"   .#:95                 39:$X  ",
"sss&&&&&&&&&&&&A&A&&&&&&&&&&&sss",
"ss&&&&&&&&&&&&&A&A&&&&&&&&&&&&ss",
"s&&&&&&&&&&&&&&A&A&&&&&&&&&&&&&s",
"ssssssssssssssssssssssssssssssss"
};
