/* XPM */
static char *result[] = {
/* columns rows colors chars-per-pixel */
"32 32 70 1 ",
"  c black",
". c #030006",
"X c #030106",
"o c #16021E",
"O c #16031F",
"+ c #14041F",
"@ c #170320",
"# c #170420",
"$ c #180421",
"% c #1B0C26",
"& c #03182B",
"* c #1F1C2D",
"= c #21152C",
"- c #22142C",
"; c #221532",
": c #221E34",
"> c #261E38",
", c #2B213F",
"< c #302E38",
"1 c gray19",
"2 c #532B3D",
"3 c #2D2841",
"4 c #2E2942",
"5 c #302B4A",
"6 c #383741",
"7 c #333748",
"8 c #353B4A",
"9 c #363152",
"0 c #443866",
"q c #2F4D5C",
"w c #47454F",
"e c #4E4551",
"r c #6E4C55",
"t c #4A4F60",
"y c #53476F",
"u c #5F5E6D",
"i c #554A71",
"p c #7B6462",
"a c #CF7539",
"s c #AB5045",
"d c #788162",
"f c #EB8154",
"g c #F1B147",
"h c #726B85",
"j c #6A7084",
"k c #777D92",
"l c #8983AA",
"z c #9494AB",
"x c #9C9BB7",
"c c #A09DB6",
"v c #A09DBC",
"b c gray63",
"n c #A5A3BA",
"m c #FEDA99",
"M c #A5A2C0",
"N c #AAA8C3",
"B c #9FD6E7",
"V c #C4C2CD",
"C c #C9C7D1",
"Z c #D6D4D0",
"A c #D9D7D7",
"S c #DFDDD9",
"D c #E7E6DE",
"F c #F3F2DE",
"G c #F3F1E1",
"H c #FCFAE6",
"J c #FDFCE6",
"K c #FFFEE8",
"L c #FCFFFD",
"P c white",
/* pixels */
"           u&&&&NAAuuu          ",
"         <&&22ss&&&&&KZ6        ",
"       &msssssssssss2&&Hn       ",
"      &ss22mmsssss22222&JDw     ",
"     z&22smmss2ss22222&eFKKc    ",
"     zK&ssssss&s22&s222&KKKc    ",
"    *&ssss222&&s&qq&&&&2&SSl:   ",
"    5&sss222&qq&ddddqqq&tVKM9   ",
"    &s2s2222&ddddddddqq&@VKM9   ",
"    5v&s2&mmmmmmmmm&&&&&#VKM9   ",
"    5v&2&f&&&&mmm&&&&f2&&VKM9   ",
"    5&m&2fBd&BfmaBd&Bf2&m&KM9   ",
"    5&f22mLL&LmmmLL&Lm22f&KM9   ",
"    5v&ffmmmmmmmmmmmmfff&VKM9   ",
"    5vK&&fmmmmmfmmmmff&&#VKM9   ",
"    5vKC+&ffmmmmmmmf&&j8#VKM9   ",
"    5vKC+p&&fffffff&8%j8#VKM9   ",
"    5vKC+7&&a&mmm22&&$j8#VKM9   ",
"    5vKC+&a2aa&&aa222&88#VKM9   ",
"    5vKC&aa22aa&&a22s2&8#VKM9   ",
"    5vK&2r&-&aaaa&&&&2s&#VKM9   ",
"    5v&rr&3=&aaaaaa&8&rr&VKM9   ",
"    5&r2&48-&&&&&&&&8%&rr&KM9   ",
"    &rr2&4&&22g&&g2&8%j&rr&M9   ",
"    &2&m&&r2qdddddqq&%&m&2&M9   ",
"    &2&f&4&qdddddddq&k&f&2&M9   ",
"    5&&&o&qdddqqqdddq&8&&&Gx9   ",
"   .>0hi&qdddq&&&qdddq&;Oyh0,X  ",
"bbb11111&qqqq&1P1&qqqq&111111bbb",
"bb1111111&&&&11P1P&&&&11111111bb",
"b1111111&rr&111P1P12rr&11111111b",
"bbbbbbb&s22&bbbbbbb&22s&bbbbbbbb"
};
