/* XPM */
static char *result[] = {
/* columns rows colors chars-per-pixel */
"32 32 16 1 ",
"  c black",
". c #03182B",
"X c gray19",
"o c #532B3D",
"O c #2F4D5C",
"+ c #6E4C55",
"@ c #FD1D26",
"# c #CF7539",
"$ c #AB5045",
"% c #788162",
"& c #EB8154",
"* c #F1B147",
"= c gray63",
"- c #FEDA99",
"; c #9FD6E7",
": c #FCFFFD",
/* pixels */
"         @@=....     @=         ",
"         @..oo$$.....@=         ",
"       .-$$$$$$$$$$$o..         ",
"      .$$oo--$$$$$ooooo.        ",
"      .oo$--$$o$$ooooo.         ",
"       .$$$$$$.$oo.$ooo.        ",
"     .$$$$ooo..$.OO....o.       ",
"     .$$$ooo.OO.%%%%OOO.        ",
"    .$o$oooo.%%%%%%%%OO.        ",
"      .$o.---------.....        ",
"      .o.&....---....&o..       ",
"     .-.o&;%.;&-#;%.;&o.-.      ",
"     .&oo-::.:---::.:-oo&.      ",
"      .&&------------&&&.       ",
"       ..&-----&----&&..        ",
"         .&&-------&..=         ",
"         @..&&&&&&&. @=         ",
"         @..#.---oo..@=         ",
"         .#o##..##ooo.=         ",
"        .##oo##..#oo$o.         ",
"       .o+.=.####....o$.        ",
"      .++.@=.######. .++.       ",
"     .+o.@@@........@@.++.      ",
"    .++o.@..oo*..*o.@@=.++.     ",
"    .o.-..+oO%%%%%OO.@.-.o.     ",
"    .o.&.@.O%%%%%%%O.@.&.o.     ",
"     ... .O%%%OOO%%%O.=...      ",
"        .O%%%O...O%%%O.         ",
"===XXXXX.OOOO.@@@.OOOO.XXXXXX===",
"==XXXXXXX....     ....=XXXXXXX==",
"=XXXXXXX.++.       o++.XXXXXXXX=",
"=======.$oo.@@@@@@@.oo$.========"
};
