/* XPM */
static char *result[] = {
/* columns rows colors chars-per-pixel */
"32 32 6 1 ",
"  c black",
". c #9E3636",
"X c #880E4F",
"o c #C2185B",
"O c #B34646",
"+ c #C25B5B",
/* pixels */
"Xo++OOOOOO..  ++++OOOOOO..  ++oX",
"oo++OOOOOO..  ++++OOOOOO..  ++oo",
"++OOOOOOOO..  ++OOOOOOOO..  ++OO",
"++OOOOOOOO..  ++OOOOOOOO..  ++OO",
"OOOOOOOO....  OOOOOOOO....  OOOO",
"OOOOOOOO....  OOOOOOOO....  OOOO",
"OOOOOO......  OOOOOO......  OOOO",
"OOOOOO......  OOOOOO......  OOOO",
"                                ",
"                                ",
"OO..  ++++OOOOOO..  ++++OOOOOO..",
"OO..  ++++OOOOOO..  ++++OOOOOO..",
"OO..  ++OOOOOOOO..  ++OOOOOOOO..",
"OO..  ++OOOOOOOO..  ++OOOOOOOO..",
"....  OOOOOOOO....  OOOOOOOO....",
"....  OOOOOOOO....  OOOOOOOO....",
"....  OOOOOO......  OOOOOO......",
"....  OOOOOO......  OOOOOO......",
"                                ",
"                                ",
"++++OOOOOO..  ++++OOOOOO..  ++++",
"++++OOOOOO..  ++++OOOOOO..  ++++",
"++OOOOOOOO..  ++OOOOOOOO..  ++OO",
"++OOOOOOOO..  ++OOOOOOOO..  ++OO",
"OOOOOOOO....  OOOOOOOO....  OOOO",
"OOOOOOOO....  OOOOOOOO....  OOOO",
"OOOOOO......  OOOOOO......  OOOO",
"OOOOOO......  OOOOOO......  OOOO",
"                                ",
"                                ",
"oo..  ++++OOOOOO..  ++++OOOOOOoo",
"Xo..  ++++OOOOOO..  ++++OOOOOOoX"
};
